<mxfile host="app.diagrams.net" modified="2021-10-29T08:41:55.761Z" agent="5.0 (Windows NT 10.0; Win64; x64) AppleWebKit/537.36 (KHTML, like Gecko) Chrome/94.0.4606.81 Safari/537.36" etag="xgDu4SMcpa15SAyr-bow" version="15.5.2" type="github">
  <diagram id="kgpKYQtTHZ0yAKxKKP6v" name="Page-1">
    <mxGraphModel dx="1355" dy="802" grid="1" gridSize="10" guides="1" tooltips="1" connect="1" arrows="1" fold="1" page="1" pageScale="1" pageWidth="2339" pageHeight="3300" math="0" shadow="0">
      <root>
        <mxCell id="0" />
        <mxCell id="1" parent="0" />
        <mxCell id="3nuBFxr9cyL0pnOWT2aG-1" value="Font-End" style="shape=umlLifeline;perimeter=lifelinePerimeter;container=1;collapsible=0;recursiveResize=0;rounded=0;shadow=0;strokeWidth=1;fillColor=#ffe6cc;strokeColor=#d79b00;" parent="1" vertex="1">
          <mxGeometry x="240" y="80" width="120" height="680" as="geometry" />
        </mxCell>
        <mxCell id="3nuBFxr9cyL0pnOWT2aG-2" value="" style="points=[];perimeter=orthogonalPerimeter;rounded=0;shadow=0;strokeWidth=1;fillColor=#ffe6cc;strokeColor=#d79b00;" parent="3nuBFxr9cyL0pnOWT2aG-1" vertex="1">
          <mxGeometry x="55" y="70" width="10" height="20" as="geometry" />
        </mxCell>
        <mxCell id="3oJljwZ6atIPU8ikdvkY-13" value="provider login" style="verticalAlign=bottom;endArrow=block;shadow=0;strokeWidth=1;entryX=0.1;entryY=-0.007;entryDx=0;entryDy=0;entryPerimeter=0;" edge="1" parent="3nuBFxr9cyL0pnOWT2aG-1" target="3oJljwZ6atIPU8ikdvkY-14">
          <mxGeometry relative="1" as="geometry">
            <mxPoint x="-90" y="140.00000000000057" as="sourcePoint" />
            <mxPoint x="450" y="140" as="targetPoint" />
          </mxGeometry>
        </mxCell>
        <mxCell id="3oJljwZ6atIPU8ikdvkY-26" value="" style="points=[];perimeter=orthogonalPerimeter;rounded=0;shadow=0;strokeWidth=1;fillColor=#ffe6cc;strokeColor=#d79b00;" vertex="1" parent="3nuBFxr9cyL0pnOWT2aG-1">
          <mxGeometry x="55" y="460" width="10" height="190" as="geometry" />
        </mxCell>
        <mxCell id="3nuBFxr9cyL0pnOWT2aG-7" value="redirect provider login page url" style="verticalAlign=bottom;endArrow=open;dashed=1;endSize=8;shadow=0;strokeWidth=1;exitX=-0.1;exitY=0.5;exitDx=0;exitDy=0;exitPerimeter=0;" parent="3nuBFxr9cyL0pnOWT2aG-1" edge="1">
          <mxGeometry relative="1" as="geometry">
            <mxPoint x="-90" y="120" as="targetPoint" />
            <mxPoint x="254" y="120" as="sourcePoint" />
          </mxGeometry>
        </mxCell>
        <mxCell id="3nuBFxr9cyL0pnOWT2aG-5" value="Client&#xa;(Spring Back-End)" style="shape=umlLifeline;perimeter=lifelinePerimeter;container=1;collapsible=0;recursiveResize=0;rounded=0;shadow=0;strokeWidth=1;fillColor=#dae8fc;strokeColor=#6c8ebf;" parent="1" vertex="1">
          <mxGeometry x="440" y="80" width="120" height="680" as="geometry" />
        </mxCell>
        <mxCell id="3nuBFxr9cyL0pnOWT2aG-6" value="" style="points=[];perimeter=orthogonalPerimeter;rounded=0;shadow=0;strokeWidth=1;fillColor=#dae8fc;strokeColor=#6c8ebf;" parent="3nuBFxr9cyL0pnOWT2aG-5" vertex="1">
          <mxGeometry x="55" y="90" width="10" height="30" as="geometry" />
        </mxCell>
        <mxCell id="3oJljwZ6atIPU8ikdvkY-15" value="" style="points=[];perimeter=orthogonalPerimeter;rounded=0;shadow=0;strokeWidth=1;fillColor=#dae8fc;strokeColor=#6c8ebf;" vertex="1" parent="3nuBFxr9cyL0pnOWT2aG-5">
          <mxGeometry x="55" y="180" width="10" height="500" as="geometry" />
        </mxCell>
        <mxCell id="3oJljwZ6atIPU8ikdvkY-32" value="find user in Database&#xa;generate jwt token and refresh token" style="verticalAlign=bottom;endArrow=block;shadow=0;strokeWidth=1;align=left;" edge="1" parent="3nuBFxr9cyL0pnOWT2aG-5">
          <mxGeometry x="0.1667" y="14" relative="1" as="geometry">
            <mxPoint x="70" y="400" as="sourcePoint" />
            <mxPoint x="70" y="420" as="targetPoint" />
            <Array as="points">
              <mxPoint x="120" y="400" />
              <mxPoint x="120" y="420" />
            </Array>
            <mxPoint x="10" y="-4" as="offset" />
          </mxGeometry>
        </mxCell>
        <mxCell id="3nuBFxr9cyL0pnOWT2aG-8" value="/oauth2/authorization/${provider}&#xa;&amp;redirect_url=xxx" style="verticalAlign=bottom;endArrow=block;shadow=0;strokeWidth=1;entryX=0.492;entryY=0.132;entryDx=0;entryDy=0;entryPerimeter=0;" parent="1" source="3nuBFxr9cyL0pnOWT2aG-2" target="3nuBFxr9cyL0pnOWT2aG-5" edge="1">
          <mxGeometry relative="1" as="geometry">
            <mxPoint x="460" y="160" as="sourcePoint" />
            <mxPoint x="410" y="170" as="targetPoint" />
          </mxGeometry>
        </mxCell>
        <mxCell id="3oJljwZ6atIPU8ikdvkY-1" value="Authorization Server" style="shape=umlLifeline;perimeter=lifelinePerimeter;container=1;collapsible=0;recursiveResize=0;rounded=0;shadow=0;strokeWidth=1;fillColor=#d5e8d4;strokeColor=#82b366;" vertex="1" parent="1">
          <mxGeometry x="640" y="80" width="120" height="680" as="geometry" />
        </mxCell>
        <mxCell id="3oJljwZ6atIPU8ikdvkY-14" value="" style="points=[];perimeter=orthogonalPerimeter;rounded=0;shadow=0;strokeWidth=1;fillColor=#d5e8d4;strokeColor=#82b366;" vertex="1" parent="3oJljwZ6atIPU8ikdvkY-1">
          <mxGeometry x="55" y="140" width="10" height="140" as="geometry" />
        </mxCell>
        <mxCell id="3oJljwZ6atIPU8ikdvkY-18" value="response access token" style="verticalAlign=bottom;endArrow=open;dashed=1;endSize=8;shadow=0;strokeWidth=1;" edge="1" parent="3oJljwZ6atIPU8ikdvkY-1">
          <mxGeometry relative="1" as="geometry">
            <mxPoint x="-120" y="281" as="targetPoint" />
            <mxPoint x="55" y="280.5" as="sourcePoint" />
          </mxGeometry>
        </mxCell>
        <mxCell id="3oJljwZ6atIPU8ikdvkY-22" value="validate authorization code&#xa;Â and redirect url" style="verticalAlign=bottom;endArrow=block;shadow=0;strokeWidth=1;" edge="1" parent="3oJljwZ6atIPU8ikdvkY-1">
          <mxGeometry x="-0.1667" y="20" relative="1" as="geometry">
            <mxPoint x="70" y="240" as="sourcePoint" />
            <mxPoint x="70" y="260" as="targetPoint" />
            <Array as="points">
              <mxPoint x="120" y="240" />
              <mxPoint x="120" y="260" />
            </Array>
            <mxPoint as="offset" />
          </mxGeometry>
        </mxCell>
        <mxCell id="3oJljwZ6atIPU8ikdvkY-3" value="Resource Server" style="shape=umlLifeline;perimeter=lifelinePerimeter;container=1;collapsible=0;recursiveResize=0;rounded=0;shadow=0;strokeWidth=1;fillColor=#fff2cc;strokeColor=#d6b656;" vertex="1" parent="1">
          <mxGeometry x="840" y="80" width="100" height="680" as="geometry" />
        </mxCell>
        <mxCell id="3oJljwZ6atIPU8ikdvkY-4" value="" style="points=[];perimeter=orthogonalPerimeter;rounded=0;shadow=0;strokeWidth=1;fillColor=#fff2cc;strokeColor=#d6b656;" vertex="1" parent="3oJljwZ6atIPU8ikdvkY-3">
          <mxGeometry x="45" y="320" width="10" height="40" as="geometry" />
        </mxCell>
        <mxCell id="3oJljwZ6atIPU8ikdvkY-24" value="validate access token" style="verticalAlign=bottom;endArrow=block;shadow=0;strokeWidth=1;" edge="1" parent="3oJljwZ6atIPU8ikdvkY-3">
          <mxGeometry x="-0.1667" y="20" relative="1" as="geometry">
            <mxPoint x="56" y="330" as="sourcePoint" />
            <mxPoint x="56" y="350" as="targetPoint" />
            <Array as="points">
              <mxPoint x="106" y="330" />
              <mxPoint x="106" y="350" />
            </Array>
            <mxPoint as="offset" />
          </mxGeometry>
        </mxCell>
        <mxCell id="3oJljwZ6atIPU8ikdvkY-6" value="Resource Owner" style="shape=umlActor;verticalLabelPosition=bottom;verticalAlign=top;html=1;fillColor=#e1d5e7;strokeColor=#9673a6;" vertex="1" parent="1">
          <mxGeometry x="125" y="80" width="30" height="30" as="geometry" />
        </mxCell>
        <mxCell id="3oJljwZ6atIPU8ikdvkY-7" value="" style="points=[];perimeter=orthogonalPerimeter;rounded=0;shadow=0;strokeWidth=1;fillColor=#e1d5e7;strokeColor=#9673a6;" vertex="1" parent="1">
          <mxGeometry x="135" y="150" width="10" height="610" as="geometry" />
        </mxCell>
        <mxCell id="3nuBFxr9cyL0pnOWT2aG-3" value="provider login click" style="verticalAlign=bottom;startArrow=oval;endArrow=block;startSize=8;shadow=0;strokeWidth=1;exitX=0.6;exitY=0;exitDx=0;exitDy=0;exitPerimeter=0;" parent="1" target="3nuBFxr9cyL0pnOWT2aG-2" edge="1" source="3oJljwZ6atIPU8ikdvkY-7">
          <mxGeometry relative="1" as="geometry">
            <mxPoint x="150" y="150" as="sourcePoint" />
          </mxGeometry>
        </mxCell>
        <mxCell id="3oJljwZ6atIPU8ikdvkY-17" value="request access token &#xa;with authorization code" style="verticalAlign=bottom;endArrow=block;shadow=0;strokeWidth=1;entryX=-0.2;entryY=0.571;entryDx=0;entryDy=0;entryPerimeter=0;" edge="1" parent="1" target="3oJljwZ6atIPU8ikdvkY-14">
          <mxGeometry relative="1" as="geometry">
            <mxPoint x="520" y="300" as="sourcePoint" />
            <mxPoint x="690" y="300" as="targetPoint" />
          </mxGeometry>
        </mxCell>
        <mxCell id="3oJljwZ6atIPU8ikdvkY-16" value="response user-agent&#xa;(authorization code, state)" style="verticalAlign=bottom;endArrow=open;dashed=1;endSize=8;shadow=0;strokeWidth=1;" edge="1" parent="1">
          <mxGeometry relative="1" as="geometry">
            <mxPoint x="510" y="261" as="targetPoint" />
            <mxPoint x="695" y="260.5" as="sourcePoint" />
          </mxGeometry>
        </mxCell>
        <mxCell id="3oJljwZ6atIPU8ikdvkY-23" value="request user info with access token" style="verticalAlign=bottom;endArrow=block;shadow=0;strokeWidth=1;entryX=-0.2;entryY=0.025;entryDx=0;entryDy=0;entryPerimeter=0;" edge="1" parent="1" target="3oJljwZ6atIPU8ikdvkY-4">
          <mxGeometry relative="1" as="geometry">
            <mxPoint x="510" y="400" as="sourcePoint" />
            <mxPoint x="880" y="400" as="targetPoint" />
          </mxGeometry>
        </mxCell>
        <mxCell id="3oJljwZ6atIPU8ikdvkY-25" value="response user info" style="verticalAlign=bottom;endArrow=open;dashed=1;endSize=8;shadow=0;strokeWidth=1;exitX=0.5;exitY=0.531;exitDx=0;exitDy=0;exitPerimeter=0;" edge="1" parent="1" source="3oJljwZ6atIPU8ikdvkY-3">
          <mxGeometry relative="1" as="geometry">
            <mxPoint x="510" y="441" as="targetPoint" />
            <mxPoint x="875" y="440.5" as="sourcePoint" />
          </mxGeometry>
        </mxCell>
        <mxCell id="3oJljwZ6atIPU8ikdvkY-34" value="redirect url page" style="verticalAlign=bottom;endArrow=open;dashed=1;endSize=8;shadow=0;strokeWidth=1;exitX=-0.1;exitY=0.5;exitDx=0;exitDy=0;exitPerimeter=0;" edge="1" parent="1">
          <mxGeometry relative="1" as="geometry">
            <mxPoint x="310" y="540" as="targetPoint" />
            <mxPoint x="495" y="540" as="sourcePoint" />
          </mxGeometry>
        </mxCell>
      </root>
    </mxGraphModel>
  </diagram>
</mxfile>
